<?xml version="1.0" standalone="no"?><!DOCTYPE svg PUBLIC "-//W3C//DTD SVG 1.1//EN" "http://www.w3.org/Graphics/SVG/1.1/DTD/svg11.dtd"><svg t="1690942908436" class="icon" viewBox="0 0 1024 1024" version="1.1" xmlns="http://www.w3.org/2000/svg" p-id="2754" xmlns:xlink="http://www.w3.org/1999/xlink" width="200" height="200"><path d="M927.7 834.8H383.3c-52.5 0-95.3-42.7-95.3-95.3V97.1c0-52.5 42.7-95.3 95.3-95.3h544.4c52.5 0 95.3 42.7 95.3 95.3v642.4c0 52.6-42.7 95.3-95.3 95.3z m-544.4-769c-17.2 0-31.3 14-31.3 31.3v642.4c0 17.2 14 31.3 31.3 31.3h544.4c17.2 0 31.3-14 31.3-31.3V97.1c0-17.2-14-31.3-31.3-31.3H383.3z" p-id="2755" fill="#8a8a8a"></path><path d="M640.1 1023.6H96.3c-52.5 0-95.3-42.7-95.3-95.3V257c0-52.5 42.7-95.3 95.3-95.3H192c17.7 0 32 14.3 32 32s-14.3 32-32 32H96.3C79 225.7 65 239.7 65 257v671.3c0 17.2 14 31.3 31.3 31.3h543.8c17.2 0 31.3-14 31.3-31.3 0-17.7 14.3-32 32-32s32 14.3 32 32c-0.1 52.5-42.8 95.3-95.3 95.3z" p-id="2756" fill="#8a8a8a"></path></svg>