<?xml version="1.0" standalone="no"?><!DOCTYPE svg PUBLIC "-//W3C//DTD SVG 1.1//EN" "http://www.w3.org/Graphics/SVG/1.1/DTD/svg11.dtd"><svg t="1690942953187" class="icon" viewBox="0 0 1024 1024" version="1.1" xmlns="http://www.w3.org/2000/svg" p-id="3537" xmlns:xlink="http://www.w3.org/1999/xlink" width="200" height="200"><path d="M500.489998 683.967232c-46.13755 0-90.811964-9.071442-132.950276-26.824157-40.675176-17.16746-77.15603-41.845685-108.564679-73.156792s-55.989331-67.889503-73.156792-108.564679c-17.850257-42.138312-26.824157-86.812726-26.824157-132.950276 0-46.13755 9.071442-90.811964 26.824157-132.950276 17.16746-40.675176 41.845685-77.15603 73.156792-108.564679s67.889503-55.989331 108.564679-73.156792C409.678034 9.949324 454.352448 0.975424 500.489998 0.975424s90.811964 9.071442 132.950276 26.824157c40.675176 17.16746 77.15603 41.845685 108.564679 73.156792s55.989331 67.889503 73.156792 108.564679c17.850257 42.138312 26.824157 86.812726 26.824157 132.950276s-9.071442 90.811964-26.824157 132.950276c-17.16746 40.675176-41.845685 77.15603-73.156792 108.564679s-67.889503 55.989331-108.564679 73.156792c-42.138312 17.752715-86.812726 26.824157-132.950276 26.824157z m0-620.662222C346.665651 63.30501 221.421223 188.549438 221.421223 342.471328s125.244428 279.068775 279.068775 279.068775c153.92189 0 279.068775-125.244428 279.068775-279.068775S654.411888 63.30501 500.489998 63.30501z" p-id="3538" fill="#8a8a8a"></path><path d="M33.359497 1024c-3.316441 0-6.632882-0.487712-9.949324-1.658221-16.387121-5.462374-25.165936-23.215089-19.703562-39.504667 17.265003-51.404839 42.333397-99.590779 74.522385-143.387312 31.798819-43.308821 69.937893-81.350352 113.344256-113.051629 90.129167-65.938655 196.938083-100.761288 308.916746-100.761288s218.787579 34.822633 308.916746 100.761288c43.406363 31.701276 81.447895 69.742808 113.344256 113.051629 32.188988 43.796533 57.257382 92.080015 74.522385 143.387312 5.462374 16.387121-3.316441 34.042294-19.703562 39.504667-16.387121 5.462374-34.042294-3.316441-39.504668-19.703562C874.95523 814.478948 699.183845 688.064012 500.489998 688.064012 301.893694 688.064012 126.024767 814.478948 62.914841 1002.735759c-4.389408 12.973138-16.484664 21.264241-29.555344 21.264241z" p-id="3539" fill="#8a8a8a"></path></svg>